# 3ds Max Wavefront OBJ Exporter v0.97b - (c)2007 guruware
# File Created: 25.01.2015 14:36:44

#
# object lamp_4
#

v  -12.500000000000 -7.500000000000 2.334140777588
v  12.500000000000 -7.500000000000 2.334140777588
v  -12.500000000000 7.500000000000 2.334140777588
v  12.500000000000 7.500000000000 2.334140777588
v  -12.500000000000 -7.500000000000 3.860292434692
v  12.500000000000 -7.500000000000 3.860291481018
v  -12.500000000000 5.811640262604 9.415664672852
v  12.500000000000 5.175593376160 9.638561248779
v  12.500000000000 7.499999523163 6.083214282990
v  -12.500000000000 7.499999523163 6.083214282990
v  -12.500000000000 5.175593376160 9.638561248779
v  12.500000000000 5.811640262604 9.415664672852
v  -12.045585632324 -7.036711215973 -0.164365768433
v  12.045585632324 -7.036711215973 -0.164365768433
v  -12.045585632324 7.036711215973 -0.164365768433
v  12.045585632324 7.036711215973 -0.164365768433
v  -12.045585632324 -7.036711215973 2.468082427979
v  12.045585632324 -7.036711215973 2.468080520630
v  -12.045585632324 7.036711215973 2.468082427979
v  12.045585632324 7.036711215973 2.468080520630
v  -10.077392578125 -6.375380516052 3.678762912750
v  11.318298339844 -5.120615005493 4.258757114410
v  -11.332153320313 3.503125429153 8.244936943054
v  -11.332153320313 -5.120615482330 9.329301834106
v  10.851974487305 -5.909054756165 9.329301834106
v  -10.865821838379 4.291563987732 8.849353790283
v  11.318298339844 3.503125190735 9.329301834106
v  -10.865829467773 -5.909054279327 3.894312858582
v  10.851974487305 -5.909054279327 3.894313812256
v  10.851982116699 4.291563987732 8.849353790283
v  -10.865829467773 -5.909054756165 9.329301834106
v  10.063537597656 -6.375380992889 9.329301834106
v  -10.077392578125 4.757890224457 9.329301834106
v  -11.332153320313 -5.120615005493 4.258757114410
v  10.063537597656 -6.375380516052 3.678762912750
v  11.318298339844 3.503125429153 8.244936943054
v  -10.077392578125 -6.375380992889 9.329301834106
v  11.318298339844 -5.120615482330 9.329301834106
v  -11.332153320313 3.503125190735 9.329301834106
v  10.063537597656 4.757890224457 9.329301834106
v  -10.948249816895 -5.044251918793 9.789989471436
v  10.580505371094 -5.637590885162 9.789989471436
v  -10.594360351563 4.020101547241 9.789989471436
v  10.934394836426 3.426761627197 9.789989471436
v  -10.594360351563 -5.637590885162 9.789989471436
v  10.580505371094 4.020101547241 9.789989471436
v  9.987167358398 -5.991475105286 9.789989471436
v  -10.001022338867 4.373984336853 9.789989471436
v  -10.001022338867 -5.991475105286 9.789989471436
v  10.934394836426 -5.044251918793 9.789989471436
v  -10.948249816895 3.426761627197 9.789989471436
v  9.987167358398 4.373984336853 9.789989471436
v  -10.206665039063 -5.249891757965 9.981941223145
v  10.192810058594 -5.249891757965 9.981941223145
v  -10.206665039063 3.632401943207 9.981941223145
v  10.192810058594 3.632401943207 9.981941223145
# 56 vertices

vn 0.000000000000 0.000000043711 -1.000000000000
vn 0.000000000000 0.000000043711 -1.000000000000
vn 0.000000000000 0.000000043711 -1.000000000000
vn 0.000000000000 0.000000043711 -1.000000000000
vn 0.000000000000 0.000000043711 -1.000000000000
vn 0.000000000000 0.000000043711 -1.000000000000
vn 0.000000034711 -0.414792358875 0.909915983677
vn 0.000000034711 -0.414792358875 0.909915983677
vn 0.000000034711 -0.414792358875 0.909915983677
vn 0.000000000000 -0.414792358875 0.909916043282
vn 0.000000000000 -0.414792358875 0.909916043282
vn 0.000000000000 -0.414792358875 0.909916043282
vn 0.000000000000 -1.000000000000 -0.000000043711
vn 0.000000000000 -1.000000000000 -0.000000043711
vn 0.000000000000 -1.000000000000 -0.000000043711
vn 0.000000000000 -1.000000000000 -0.000000043711
vn 0.000000000000 -1.000000000000 -0.000000043711
vn 0.000000000000 -1.000000000000 -0.000000043711
vn 1.000000000000 0.000000000000 -0.000000000000
vn 1.000000000000 0.000000000000 -0.000000000000
vn 1.000000000000 0.000000000000 -0.000000000000
vn 1.000000000000 0.000000000000 -0.000000000000
vn 1.000000000000 0.000000000000 -0.000000000000
vn 1.000000000000 0.000000000000 -0.000000000000
vn 1.000000000000 0.000000000000 -0.000000000000
vn 1.000000000000 0.000000000000 -0.000000000000
vn 1.000000000000 0.000000000000 -0.000000000000
vn 1.000000000000 0.000000000000 -0.000000000000
vn 1.000000000000 0.000000000000 -0.000000000000
vn 1.000000000000 0.000000000000 -0.000000000000
vn 0.000000000000 0.999999940395 0.000000043711
vn 0.000000000000 0.999999940395 0.000000043711
vn 0.000000000000 0.999999940395 0.000000043711
vn 0.000000000000 0.999999940395 0.000000043711
vn 0.000000000000 0.999999940395 0.000000043711
vn 0.000000000000 0.999999940395 0.000000043711
vn -1.000000000000 0.000000000000 -0.000000000000
vn -1.000000000000 0.000000000000 -0.000000000000
vn -1.000000000000 0.000000000000 -0.000000000000
vn -1.000000000000 0.000000000000 -0.000000000000
vn -1.000000000000 0.000000000000 -0.000000000000
vn -1.000000000000 0.000000000000 -0.000000000000
vn -1.000000000000 0.000000000000 -0.000000000000
vn -1.000000000000 0.000000000000 -0.000000000000
vn -1.000000000000 0.000000000000 -0.000000000000
vn -1.000000000000 0.000000000000 -0.000000000000
vn -1.000000000000 0.000000000000 -0.000000000000
vn -1.000000000000 0.000000000000 -0.000000000000
vn 0.000000000000 0.892044663429 0.451947242022
vn 0.000000000000 0.892044663429 0.451947242022
vn 0.000000000000 0.892044663429 0.451947242022
vn 0.000000000000 0.892044663429 0.451947242022
vn 0.000000000000 0.892044663429 0.451947242022
vn 0.000000000000 0.892044663429 0.451947242022
vn 0.000000000000 0.330720692873 0.943728685379
vn 0.000000000000 0.330720692873 0.943728685379
vn 0.000000000000 0.330720692873 0.943728685379
vn 0.000000000000 0.330720692873 0.943728685379
vn 0.000000000000 0.330720692873 0.943728685379
vn 0.000000000000 0.330720692873 0.943728685379
vn 0.000000000000 -1.000000000000 -0.000000043711
vn 0.000000000000 -1.000000000000 -0.000000043711
vn 0.000000000000 -1.000000000000 -0.000000043711
vn 0.000000000000 -1.000000000000 -0.000000043711
vn 0.000000000000 -1.000000000000 -0.000000043711
vn 0.000000000000 -1.000000000000 -0.000000043711
vn 1.000000000000 0.000000000000 -0.000000000000
vn 1.000000000000 0.000000000000 -0.000000000000
vn 1.000000000000 0.000000000000 -0.000000000000
vn 1.000000000000 0.000000000000 -0.000000000000
vn 1.000000000000 0.000000000000 -0.000000000000
vn 1.000000000000 0.000000000000 -0.000000000000
vn 0.000000000000 1.000000000000 0.000000043711
vn 0.000000000000 1.000000000000 0.000000043711
vn 0.000000000000 1.000000000000 0.000000043711
vn 0.000000000000 1.000000000000 0.000000043711
vn 0.000000000000 1.000000000000 0.000000043711
vn 0.000000000000 1.000000000000 0.000000043711
vn -1.000000000000 0.000000000000 -0.000000000000
vn -1.000000000000 0.000000000000 -0.000000000000
vn -1.000000000000 0.000000000000 -0.000000000000
vn -1.000000000000 0.000000000000 -0.000000000000
vn -1.000000000000 0.000000000000 -0.000000000000
vn -1.000000000000 0.000000000000 -0.000000000000
vn 0.130690872669 0.130691185594 0.982771456242
vn -0.130690872669 0.130691170692 0.982771456242
vn -0.130690932274 -0.130691230297 0.982771456242
vn -0.130690932274 -0.130691230297 0.982771456242
vn 0.130690917373 -0.130691230297 0.982771456242
vn 0.130690872669 0.130691185594 0.982771456242
vn 0.247197926044 -0.912001311779 0.327332764864
vn -0.246913850307 -0.912185072899 0.327035009861
vn -0.242882072926 -0.970055818558 -0.000000042402
vn -0.242882072926 -0.970055818558 -0.000000042402
vn 0.242881998420 -0.970055818558 -0.000000042402
vn 0.247197926044 -0.912001311779 0.327332764864
vn 0.900489509106 0.281013697386 0.331888467073
vn 0.912186324596 -0.246911972761 0.327033013105
vn 0.943134963512 -0.332410097122 -0.000000014530
vn 0.943134963512 -0.332410097122 -0.000000014530
vn 0.984835565090 0.173490494490 0.000000007584
vn 0.900489509106 0.281013697386 0.331888467073
vn -0.912002086639 -0.247196808457 0.327331542969
vn -0.874438643456 0.323271751404 0.361735254526
vn -0.984834671021 0.173495456576 0.000000007584
vn -0.984834671021 0.173495456576 0.000000007584
vn -0.943134903908 -0.332410186529 -0.000000014530
vn -0.912002086639 -0.247196808457 0.327331542969
vn 0.247197926044 -0.912001311779 0.327332764864
vn 0.242881998420 -0.970055818558 -0.000000042402
vn 0.669225394726 -0.743059515953 -0.000000032480
vn 0.669225394726 -0.743059515953 -0.000000032480
vn 0.668729245663 -0.669204533100 0.323985308409
vn 0.247197926044 -0.912001311779 0.327332764864
vn -0.242882072926 -0.970055818558 -0.000000042402
vn -0.246913850307 -0.912185072899 0.327035009861
vn -0.669206440449 -0.668726921082 0.323986172676
vn -0.669206440449 -0.668726921082 0.323986172676
vn -0.669225335121 -0.743059515953 -0.000000032480
vn -0.242882072926 -0.970055818558 -0.000000042402
vn 0.900489509106 0.281013697386 0.331888467073
vn 0.984835565090 0.173490494490 0.000000007584
vn 0.725074350834 0.627043366432 0.284752160311
vn 0.943134963512 -0.332410097122 -0.000000014530
vn 0.912186324596 -0.246911972761 0.327033013105
vn 0.668729245663 -0.669204533100 0.323985308409
vn 0.668729245663 -0.669204533100 0.323985308409
vn 0.669225394726 -0.743059515953 -0.000000032480
vn 0.943134963512 -0.332410097122 -0.000000014530
vn -0.912002086639 -0.247196808457 0.327331542969
vn -0.943134903908 -0.332410186529 -0.000000014530
vn -0.669225335121 -0.743059515953 -0.000000032480
vn -0.669225335121 -0.743059515953 -0.000000032480
vn -0.669206440449 -0.668726921082 0.323986172676
vn -0.912002086639 -0.247196808457 0.327331542969
vn -0.984834671021 0.173495456576 0.000000007584
vn -0.874438643456 0.323271751404 0.361735254526
vn -0.748185455799 0.599703669548 0.283855736256
vn 0.553862571716 0.147987067699 0.819351017475
vn 0.553667008877 -0.147257223725 0.819614648819
vn 0.912186324596 -0.246911972761 0.327033013105
vn 0.912186324596 -0.246911972761 0.327033013105
vn 0.900489509106 0.281013697386 0.331888467073
vn 0.553862571716 0.147987067699 0.819351017475
vn -0.553862512112 -0.147987350821 0.819351017475
vn -0.572388350964 0.208327561617 0.793077051640
vn -0.874438643456 0.323271751404 0.361735254526
vn -0.874438643456 0.323271751404 0.361735254526
vn -0.912002086639 -0.247196808457 0.327331542969
vn -0.553862512112 -0.147987350821 0.819351017475
vn 0.147983968258 -0.553860783577 0.819352805614
vn -0.147255688906 -0.553665757179 0.819615781307
vn -0.246913850307 -0.912185072899 0.327035009861
vn -0.246913850307 -0.912185072899 0.327035009861
vn 0.247197926044 -0.912001311779 0.327332764864
vn 0.147983968258 -0.553860783577 0.819352805614
vn -0.147983506322 0.553860723972 0.819352865219
vn 0.208323732018 0.572386562824 0.793079316616
vn 0.376475185156 0.680053889751 0.629120886326
vn 0.376475185156 0.680053889751 0.629120886326
vn -0.309870928526 0.753377139568 0.580002546310
vn -0.147983506322 0.553860723972 0.819352865219
vn 0.421859025955 -0.422726362944 0.802083194256
vn 0.147983968258 -0.553860783577 0.819352805614
vn 0.247197926044 -0.912001311779 0.327332764864
vn 0.247197926044 -0.912001311779 0.327332764864
vn 0.668729245663 -0.669204533100 0.323985308409
vn 0.421859025955 -0.422726362944 0.802083194256
vn -0.523343443871 0.465590506792 0.713678538799
vn -0.147983506322 0.553860723972 0.819352865219
vn -0.309870928526 0.753377139568 0.580002546310
vn -0.309870928526 0.753377139568 0.580002546310
vn -0.748185455799 0.599703669548 0.283855736256
vn -0.523343443871 0.465590506792 0.713678538799
vn 0.553667008877 -0.147257223725 0.819614648819
vn 0.421859025955 -0.422726362944 0.802083194256
vn 0.668729245663 -0.669204533100 0.323985308409
vn 0.668729245663 -0.669204533100 0.323985308409
vn 0.912186324596 -0.246911972761 0.327033013105
vn 0.553667008877 -0.147257223725 0.819614648819
vn 0.465587556362 0.523343801498 0.713680207729
vn 0.553862571716 0.147987067699 0.819351017475
vn 0.900489509106 0.281013697386 0.331888467073
vn 0.900489509106 0.281013697386 0.331888467073
vn 0.725074350834 0.627043366432 0.284752160311
vn 0.465587556362 0.523343801498 0.713680207729
vn -0.572388350964 0.208327561617 0.793077051640
vn -0.523343443871 0.465590506792 0.713678538799
vn -0.748185455799 0.599703669548 0.283855736256
vn -0.748185455799 0.599703669548 0.283855736256
vn -0.874438643456 0.323271751404 0.361735254526
vn -0.572388350964 0.208327561617 0.793077051640
vn -0.422724634409 -0.421861976385 0.802082538605
vn -0.553862512112 -0.147987350821 0.819351017475
vn -0.912002086639 -0.247196808457 0.327331542969
vn -0.912002086639 -0.247196808457 0.327331542969
vn -0.669206440449 -0.668726921082 0.323986172676
vn -0.422724634409 -0.421861976385 0.802082538605
vn -0.147255688906 -0.553665757179 0.819615781307
vn -0.422724634409 -0.421861976385 0.802082538605
vn -0.669206440449 -0.668726921082 0.323986172676
vn -0.669206440449 -0.668726921082 0.323986172676
vn -0.246913850307 -0.912185072899 0.327035009861
vn -0.147255688906 -0.553665757179 0.819615781307
vn 0.208323732018 0.572386562824 0.793079316616
vn 0.465587556362 0.523343801498 0.713680207729
vn 0.725074350834 0.627043366432 0.284752160311
vn 0.725074350834 0.627043366432 0.284752160311
vn 0.376475185156 0.680053889751 0.629120886326
vn 0.208323732018 0.572386562824 0.793079316616
vn 0.130690872669 0.130691185594 0.982771456242
vn 0.130690917373 -0.130691230297 0.982771456242
vn 0.553667008877 -0.147257223725 0.819614648819
vn 0.553667008877 -0.147257223725 0.819614648819
vn 0.553862571716 0.147987067699 0.819351017475
vn 0.130690872669 0.130691185594 0.982771456242
vn -0.130690932274 -0.130691230297 0.982771456242
vn -0.130690872669 0.130691170692 0.982771456242
vn -0.572388350964 0.208327561617 0.793077051640
vn -0.572388350964 0.208327561617 0.793077051640
vn -0.553862512112 -0.147987350821 0.819351017475
vn -0.130690932274 -0.130691230297 0.982771456242
vn 0.130690917373 -0.130691230297 0.982771456242
vn -0.130690932274 -0.130691230297 0.982771456242
vn -0.147255688906 -0.553665757179 0.819615781307
vn -0.147255688906 -0.553665757179 0.819615781307
vn 0.147983968258 -0.553860783577 0.819352805614
vn 0.130690917373 -0.130691230297 0.982771456242
vn 0.147983968258 -0.553860783577 0.819352805614
vn 0.421859025955 -0.422726362944 0.802083194256
vn 0.130690917373 -0.130691230297 0.982771456242
vn -0.130690872669 0.130691170692 0.982771456242
vn 0.130690872669 0.130691185594 0.982771456242
vn 0.208323732018 0.572386562824 0.793079316616
vn 0.208323732018 0.572386562824 0.793079316616
vn -0.147983506322 0.553860723972 0.819352865219
vn -0.130690872669 0.130691170692 0.982771456242
vn -0.147983506322 0.553860723972 0.819352865219
vn -0.523343443871 0.465590506792 0.713678538799
vn -0.130690872669 0.130691170692 0.982771456242
vn 0.421859025955 -0.422726362944 0.802083194256
vn 0.553667008877 -0.147257223725 0.819614648819
vn 0.130690917373 -0.130691230297 0.982771456242
vn 0.553862571716 0.147987067699 0.819351017475
vn 0.465587556362 0.523343801498 0.713680207729
vn 0.130690872669 0.130691185594 0.982771456242
vn -0.523343443871 0.465590506792 0.713678538799
vn -0.572388350964 0.208327561617 0.793077051640
vn -0.130690872669 0.130691170692 0.982771456242
vn -0.553862512112 -0.147987350821 0.819351017475
vn -0.422724634409 -0.421861976385 0.802082538605
vn -0.130690932274 -0.130691230297 0.982771456242
vn -0.422724634409 -0.421861976385 0.802082538605
vn -0.147255688906 -0.553665757179 0.819615781307
vn -0.130690932274 -0.130691230297 0.982771456242
vn 0.465587556362 0.523343801498 0.713680207729
vn 0.208323732018 0.572386562824 0.793079316616
vn 0.130690872669 0.130691185594 0.982771456242
# 258 vertex normals

vt 0.191792026162 0.586498498917 0.032129287720
vt 0.387338757515 0.586525499821 0.032129287720
vt 0.387340962887 0.671555936337 0.032129287720
vt 0.191754847765 0.671555936337 0.032129287720
vt 0.454464673996 0.570348083973 -0.044552296400
vt 0.454464673996 0.570348083973 -0.081820935011
vt 0.400279700756 0.570348083973 -0.081820935011
vt 0.400279700756 0.570348083973 -0.044552296400
vt 0.448902964592 0.587646424770 -0.032129287720
vt 0.410677850246 0.670612514019 -0.032129287720
vt 0.400279700756 0.670612514019 -0.032129287720
vt 0.400279700756 0.587646424770 -0.032129287720
vt 0.410677850246 0.670612514019 -0.032129287720
vt 0.448902964592 0.587646424770 -0.032129287720
vt 0.178861036897 0.587375342846 -0.032129287720
vt 0.178832978010 0.670355200768 -0.032129287720
vt 0.400279700756 0.587646424770 -0.032129287720
vt 0.400279700756 0.670612514019 -0.032129287720
vt 0.395027756691 0.680045247078 -0.013494968414
vt 0.400279700756 0.579132139683 -0.050763607025
vt 0.452397823334 0.579132139683 -0.050763607025
vt 0.452397823334 0.579132139683 -0.013494968414
vt 0.400279700756 0.579132139683 -0.013494968414
vt 0.394636154175 0.669437766075 0.013229787350
vt 0.394636154175 0.588092982769 0.013229787350
vt 0.184476897120 0.588403284550 0.013229787350
vt 0.184475377202 0.669725120068 0.013229787350
vt 0.385501086712 0.579193294048 0.013229787350
vt 0.193707317114 0.579195380211 0.013229787350
vt 0.386181116104 0.684244215488 -0.032129287720
vt 0.192724660039 0.684244215488 -0.032129287720
vt 0.193743139505 0.678695440292 0.013229787350
vt 0.385325968266 0.678695440292 0.013229787350
vt 0.391285419464 0.582690596581 0.013229787350
vt 0.187887445092 0.675609230995 0.013229787350
vt 0.391194999218 0.675675511360 0.013229787350
vt 0.187908753753 0.582617938519 0.013229787350
vt 0.395027756691 0.680045247078 -0.050607681274
vt 0.192794293165 0.519375860691 -0.032129123807
vt 0.386240005493 0.519375860691 -0.032129451632
vt 0.386546909809 0.573561072350 -0.032129369676
vt 0.192794293165 0.573561072350 -0.032129205763
vt 0.395414471626 0.578722774982 -0.032129287720
vt 0.184009745717 0.679787576199 -0.032129287720
vt 0.395027756691 0.680045247078 -0.032129287720
vt 0.183905467391 0.578523337841 -0.032129287720
vt 0.887515962124 0.862576901913 -0.284462898970
vt 0.788138568401 0.713067471981 -0.284462988377
vt 0.623974263668 0.713067471981 -0.284462809563
vt 0.887516558170 0.996108829975 -0.284462898970
vt 0.788138568401 0.814564645290 0.142231464386
vt 0.623974263668 0.814564645290 0.142231523991
vt 0.623974263668 0.723089158535 -0.142231315374
vt 0.788138568401 0.723089158535 -0.142231553793
vt 0.815712869167 0.818769156933 -0.000000044703
vt 0.791202723980 0.817758023739 -0.000000044703
vt 0.623974263668 0.843521416187 0.374961614609
vt 0.791202723980 0.817758023739 0.000000104308
vt 0.625926911831 0.691352486610 0.000000178814
vt 0.706767082214 0.691350877285 -0.000000208616
vt 0.706767082214 0.706475615501 -0.000000208616
vt 0.625926911831 0.706477224827 0.000000178814
vt 0.706767082214 0.691352903843 -0.000000178814
vt 0.706767082214 0.706477522850 -0.000000178814
vt 0.845231056213 0.691352903843 0.000000178814
vt 0.845231056213 0.706477522850 0.000000178814
vt 0.788138568401 0.814564645290 0.142231523991
vt 0.788138568401 0.723089158535 -0.142231315374
vt 0.807396829128 0.862577259541 -0.284462988377
vt 0.807397305965 0.996109068394 -0.284462809563
vt 0.845231056213 0.691352486610 0.000000178814
vt 0.845231056213 0.706477284431 0.000000178814
vt 0.706767082214 0.691352903843 0.000000178814
vt 0.797257363796 0.718932211399 -0.000000044703
vt 0.838113725185 0.808557450771 -0.000000044703
vt 0.706767082214 0.706477522850 0.000000178814
vt 0.623974263668 0.868139922619 0.374961614609
vt 0.788138568401 0.843521296978 0.374961256981
vt 0.788138806820 0.868139922619 0.374961256981
vt 0.815712869167 0.818769156933 0.000000104308
vt 0.838113725185 0.808557569981 0.000000104308
vt 0.797257363796 0.718932330608 0.000000104308
vt 0.623974263668 0.818990409374 0.262516736984
vt 0.788138568401 0.818990290165 0.262516558170
vt 0.625926911831 0.691353261471 -0.000000178814
vt 0.625926911831 0.706477820873 -0.000000178814
# 86 texture coords

g lamp_4
s off
f 1/70/1 3/50/2 4/47/3 
f 4/47/4 2/69/5 1/70/6 
f 5/53/7 6/54/8 8/51/9 
f 8/51/10 11/52/11 5/53/12 
f 1/49/13 2/48/14 6/54/15 
f 6/54/16 5/53/17 1/49/18 
f 2/74/19 4/75/20 9/55/21 
f 2/74/22 9/55/23 12/56/24 
f 2/74/25 12/56/26 8/51/27 
f 2/74/28 8/51/29 6/54/30 
f 9/78/31 4/79/32 3/77/33 
f 3/77/34 10/57/35 9/78/36 
f 5/68/37 11/67/38 7/58/39 
f 5/68/40 7/58/41 10/80/42 
f 5/68/43 10/80/44 3/81/45 
f 5/68/46 3/81/47 1/82/48 
f 9/78/49 10/57/50 7/83/51 
f 7/83/52 12/84/53 9/78/54 
f 11/52/55 8/51/56 12/84/57 
f 12/84/58 7/83/59 11/52/60 
s 8
f 18/61/61 17/72/62 13/71/63 
f 13/71/64 14/60/65 18/61/66 
s 16
f 20/64/67 18/86/68 14/85/69 
f 14/85/70 16/63/71 20/64/72 
s 32
f 19/66/73 20/64/74 16/63/75 
f 16/63/76 15/65/77 19/66/78 
s 64
f 17/62/79 19/76/80 15/73/81 
f 15/73/82 13/59/83 17/62/84 
s 1
f 56/3/85 55/4/86 53/1/87 
f 53/1/88 54/2/89 56/3/90 
f 32/41/91 37/42/92 21/39/93 
f 21/39/94 35/40/95 32/41/96 
f 27/11/97 38/12/98 22/9/99 
f 22/9/100 36/10/101 27/11/102 
f 24/17/103 39/18/104 23/13/105 
f 23/13/106 34/14/107 24/17/108 
f 32/7/109 35/6/110 29/21/111 
f 29/21/112 25/20/113 32/7/114 
f 21/5/115 37/8/116 31/23/117 
f 31/23/118 28/22/119 21/5/120 
f 27/11/121 36/10/122 30/38/123 
f 22/9/124 38/12/125 25/20/126 
f 25/20/127 29/21/128 22/9/129 
f 24/17/130 34/14/131 28/22/132 
f 28/22/133 31/23/134 24/17/135 
f 23/13/136 39/18/137 26/19/138 
f 44/24/139 50/25/140 38/12/141 
f 38/12/142 27/11/143 44/24/144 
f 41/26/145 51/27/146 39/16/147 
f 39/16/148 24/15/149 41/26/150 
f 47/28/151 49/29/152 37/42/153 
f 37/42/154 32/41/155 47/28/156 
f 48/32/157 52/33/158 40/30/159 
f 40/30/160 33/31/161 48/32/162 
f 42/34/163 47/28/164 32/41/165 
f 32/41/166 25/43/167 42/34/168 
f 43/35/169 48/32/170 33/31/171 
f 33/31/172 26/44/173 43/35/174 
f 50/25/175 42/34/176 25/43/177 
f 25/43/178 38/12/179 50/25/180 
f 46/36/181 44/24/182 27/11/183 
f 27/11/184 30/45/185 46/36/186 
f 51/27/187 43/35/188 26/44/189 
f 26/44/190 39/16/191 51/27/192 
f 45/37/193 41/26/194 24/15/195 
f 24/15/196 31/46/197 45/37/198 
f 49/29/199 45/37/200 31/46/201 
f 31/46/202 37/42/203 49/29/204 
f 52/33/205 46/36/206 30/45/207 
f 30/45/208 40/30/209 52/33/210 
f 56/3/211 54/2/212 50/25/213 
f 50/25/214 44/24/215 56/3/216 
f 53/1/217 55/4/218 51/27/219 
f 51/27/220 41/26/221 53/1/222 
f 54/2/223 53/1/224 49/29/225 
f 49/29/226 47/28/227 54/2/228 
f 47/28/229 42/34/230 54/2/231 
f 55/4/232 56/3/233 52/33/234 
f 52/33/235 48/32/236 55/4/237 
f 48/32/238 43/35/239 55/4/240 
f 42/34/241 50/25/242 54/2/243 
f 44/24/244 46/36/245 56/3/246 
f 43/35/247 51/27/248 55/4/249 
f 41/26/250 45/37/251 53/1/252 
f 45/37/253 49/29/254 53/1/255 
f 46/36/256 52/33/257 56/3/258 
# 86 faces

