# 3ds Max Wavefront OBJ Exporter v0.97b - (c)2007 guruware
# File Created: 25.01.2015 14:42:33

#
# object lamp_6_a
#

v  49.817176818848 -4.449016571045 -7.453678131104
v  49.817176818848 -4.449016571045 7.453674316406
v  49.817176818848 -2.724665880203 -7.250404357910
v  49.817176818848 -2.724665880203 7.250404357910
v  -49.817176818848 -4.449016571045 -7.453681945801
v  -49.817184448242 -4.449016571045 7.453674316406
v  -49.817176818848 -2.724666118622 -7.250408172607
v  -49.817184448242 -2.724666357040 7.250400543213
v  49.817176818848 -1.274436712265 -6.871593475342
v  49.817176818848 -1.274436712265 6.871593475342
v  -49.817176818848 -1.274436593056 -6.871597290039
v  -49.817184448242 -1.274436950684 6.871593475342
v  49.817176818848 -0.469152182341 -6.430034637451
v  49.817176818848 -0.469152122736 6.430030822754
v  -49.817176818848 -0.469152182341 -6.430034637451
v  -49.817184448242 -0.469152420759 6.430030822754
v  49.817176818848 0.015350401402 -5.941539764404
v  49.817176818848 0.015350487083 5.941539764404
v  -49.817176818848 0.015350401402 -5.941539764404
v  -49.817184448242 0.015350487083 5.941535949707
v  49.339813232422 -4.766722202301 -6.907882690430
v  49.339813232422 -4.766722202301 6.907882690430
v  -49.339820861816 -4.766722202301 -6.907882690430
v  -49.339820861816 -4.766722202301 6.907875061035
# 24 vertices

vn 1.000000000000 0.000000000000 -0.000000000000
vn 1.000000000000 0.000000000000 -0.000000000000
vn 1.000000000000 0.000000000000 -0.000000000000
vn 1.000000000000 0.000000000000 -0.000000000000
vn 1.000000000000 0.000000000000 -0.000000000000
vn 1.000000000000 0.000000000000 -0.000000000000
vn -1.000000000000 0.000000052196 -0.000000524983
vn -1.000000000000 -0.000000060332 -0.000000511787
vn -1.000000000000 -0.000000089339 -0.000000518629
vn -1.000000000000 -0.000000089339 -0.000000518629
vn -1.000000000000 0.000000088741 -0.000000537849
vn -1.000000000000 0.000000052196 -0.000000524983
vn -0.000000000000 -1.000000000000 -0.000000009197
vn -0.000000000000 -1.000000000000 -0.000000009197
vn -0.000000000000 -1.000000000000 -0.000000009197
vn -0.000000000000 -1.000000000000 -0.000000009197
vn 0.000000000000 -1.000000000000 -0.000000009197
vn -0.000000000000 -1.000000000000 -0.000000009197
vn -0.000000038156 0.117071352899 0.993123471737
vn -0.000000038511 0.185341775417 0.982674121857
vn -0.000000000698 0.185341641307 0.982674121857
vn -0.000000000698 0.185341641307 0.982674121857
vn 0.000000000000 0.117073535919 0.993123233318
vn -0.000000038156 0.117071352899 0.993123471737
vn 0.000000000000 1.000000000000 -0.000000007232
vn 0.000000000000 1.000000000000 -0.000000007232
vn 0.000000000000 1.000000000000 -0.000000007232
vn 0.000000000000 1.000000000000 -0.000000007232
vn 0.000000000000 1.000000000000 -0.000000007232
vn 0.000000000000 1.000000000000 -0.000000007232
vn 0.000000037769 0.185342937708 -0.982673883438
vn 0.000000038024 0.117073610425 -0.993123233318
vn 0.000000037747 0.117073625326 -0.993123233318
vn 0.000000037747 0.117073625326 -0.993123233318
vn 0.000000037180 0.185342893004 -0.982673943043
vn 0.000000037769 0.185342937708 -0.982673883438
vn 1.000000000000 0.000000000000 -0.000000000000
vn 1.000000000000 0.000000000000 -0.000000000000
vn 1.000000000000 0.000000000000 -0.000000000000
vn 1.000000000000 0.000000000000 -0.000000000000
vn 1.000000000000 0.000000000000 -0.000000000000
vn 1.000000000000 0.000000000000 -0.000000000000
vn -1.000000000000 0.000000088741 -0.000000537849
vn -1.000000000000 -0.000000089339 -0.000000518629
vn -1.000000000000 -0.000000189105 -0.000000537871
vn -1.000000000000 -0.000000189105 -0.000000537871
vn -1.000000000000 0.000000198436 -0.000000568421
vn -1.000000000000 0.000000088741 -0.000000537849
vn -0.000000000698 0.185341641307 0.982674121857
vn -0.000000038511 0.185341775417 0.982674121857
vn -0.000000019670 0.369554877281 0.929208874702
vn -0.000000019670 0.369554877281 0.929208874702
vn -0.000000001028 0.369553714991 0.929209351540
vn -0.000000000698 0.185341641307 0.982674121857
vn 0.000000037769 0.185342937708 -0.982673883438
vn 0.000000037180 0.185342893004 -0.982673943043
vn 0.000000035566 0.369554907084 -0.929208934307
vn 0.000000035566 0.369554907084 -0.929208934307
vn 0.000000018916 0.369553267956 -0.929209589958
vn 0.000000037769 0.185342937708 -0.982673883438
vn 1.000000000000 0.000000000000 -0.000000000000
vn 1.000000000000 0.000000000000 -0.000000000000
vn 1.000000000000 0.000000000000 -0.000000000000
vn 1.000000000000 0.000000000000 -0.000000000000
vn 1.000000000000 0.000000000000 -0.000000000000
vn 1.000000000000 0.000000000000 -0.000000000000
vn 0.000000018916 0.369553267956 -0.929209589958
vn 0.000000035566 0.369554907084 -0.929208934307
vn 0.000000017150 0.601622879505 -0.798780322075
vn 0.000000017150 0.601622879505 -0.798780322075
vn 0.000000000000 0.601621448994 -0.798781394958
vn 0.000000018916 0.369553267956 -0.929209589958
vn -1.000000000000 0.000000198436 -0.000000568421
vn -1.000000000000 -0.000000189105 -0.000000537871
vn -1.000000000000 -0.000000371483 -0.000000566385
vn -1.000000000000 -0.000000371483 -0.000000566385
vn -1.000000000000 0.000000396388 -0.000000605948
vn -1.000000000000 0.000000198436 -0.000000568421
vn -0.000000001028 0.369553714991 0.929209351540
vn -0.000000019670 0.369554877281 0.929208874702
vn -0.000000001655 0.601621150970 0.798781514168
vn -0.000000001655 0.601621150970 0.798781514168
vn -0.000000014293 0.601622581482 0.798780441284
vn -0.000000001028 0.369553714991 0.929209351540
vn 1.000000000000 0.000000000000 -0.000000000000
vn 1.000000000000 0.000000000000 -0.000000000000
vn 1.000000000000 0.000000000000 -0.000000000000
vn 1.000000000000 0.000000000000 -0.000000000000
vn 1.000000000000 0.000000000000 -0.000000000000
vn 1.000000000000 0.000000000000 -0.000000000000
vn 0.000000000000 0.601621448994 -0.798781394958
vn 0.000000017150 0.601622879505 -0.798780322075
vn 0.000000000000 0.710002183914 -0.704199433327
vn 0.000000000000 0.710002183914 -0.704199433327
vn 0.000000000000 0.710002183914 -0.704199433327
vn 0.000000000000 0.601621448994 -0.798781394958
vn -1.000000000000 0.000000396388 -0.000000605948
vn -1.000000000000 -0.000000371483 -0.000000566385
vn -1.000000000000 -0.000000577497 -0.000000594071
vn -1.000000000000 -0.000000577497 -0.000000594071
vn -1.000000000000 0.000000647329 -0.000000642039
vn -1.000000000000 0.000000396388 -0.000000605948
vn -0.000000014293 0.601622581482 0.798780441284
vn -0.000000001655 0.601621150970 0.798781514168
vn -0.000000002233 0.709999382496 0.704202294350
vn -0.000000002233 0.709999382496 0.704202294350
vn -0.000000026962 0.710001826286 0.704199790955
vn -0.000000014293 0.601622581482 0.798780441284
vn 0.554051935673 -0.832482099533 -0.000000009761
vn 0.554051935673 -0.832482099533 -0.000000009761
vn 0.554051935673 -0.832482099533 -0.000000009761
vn 0.554052054882 -0.832482039928 -0.000000007657
vn 0.554052054882 -0.832482039928 -0.000000007657
vn 0.554052054882 -0.832482039928 -0.000000007657
vn -0.554057955742 -0.832478106022 -0.000000293320
vn -0.554057955742 -0.832478106022 -0.000000293320
vn -0.554057955742 -0.832478106022 -0.000000293320
vn -0.554051935673 -0.832482039928 -0.000000007657
vn -0.554051935673 -0.832482039928 -0.000000007657
vn -0.554051935673 -0.832482039928 -0.000000007657
vn 0.000000000000 -0.864245235920 0.503070592880
vn 0.000000000000 -0.864245235920 0.503070592880
vn 0.000000000000 -0.864245235920 0.503070592880
vn -0.000000038895 -0.864242196083 0.503075897694
vn -0.000000038895 -0.864242196083 0.503075897694
vn -0.000000038895 -0.864242196083 0.503075897694
vn 0.000000019261 -0.864243745804 -0.503073394299
vn 0.000000019261 -0.864243745804 -0.503073394299
vn 0.000000019261 -0.864243745804 -0.503073394299
vn 0.000000000000 -0.864245295525 -0.503070712090
vn 0.000000000000 -0.864245295525 -0.503070712090
vn 0.000000000000 -0.864245295525 -0.503070712090
# 132 vertex normals

vt 0.537279009819 0.286682188511 -0.032735452056
vt 0.617417633533 0.871545851231 -0.044955834746
vt 0.010957103223 0.871545851231 -0.044955298305
vt 0.617417633533 0.780372798443 -0.081531807780
vt 0.010957404971 0.780373156071 -0.081531286240
vt 0.530415832996 0.291839152575 -0.000000227243
vt 0.530415832996 0.217212766409 -0.000000249594
vt 0.530415654182 0.291839152575 0.000000212342
vt 0.530415654182 0.217212766409 0.000000264496
vt 0.274519681931 0.508645594120 -0.000940442085
vt 0.288150429726 0.508645594120 -0.000940442085
vt 0.274519681931 0.508638322353 -0.000940456986
vt 0.288150191307 0.508638322353 -0.000940456986
vt 0.502379477024 0.301335573196 -0.000000238419
vt 0.502379477024 0.207716375589 -0.000000238419
vt 0.513208448887 0.300058841705 -0.000000238419
vt 0.513208448887 0.208992779255 -0.000000238419
vt 0.502379477024 0.301335573196 0.000000178814
vt 0.502379179001 0.207716375589 0.000000298023
vt 0.513208448887 0.300059050322 0.000000178814
vt 0.513208329678 0.208992779255 0.000000298023
vt 0.522315979004 0.297679990530 -0.000000238419
vt 0.522315979004 0.211371988058 -0.000000238419
vt 0.522315979004 0.297679990530 0.000000178814
vt 0.522315979004 0.211371988058 0.000000298023
vt 0.527373433113 0.294906973839 -0.000000238419
vt 0.527373075485 0.214144945145 -0.000000238419
vt 0.527373075485 0.214144945145 0.000000298023
vt 0.994001626968 0.283528953791 -0.000000227243
vt 0.994001626968 0.229057133198 -0.000000249594
vt 0.537279009819 0.283528953791 0.000000212342
vt 0.537279009819 0.229057133198 0.000000264496
vt 0.614222705364 0.783952832222 -0.064758777618
vt 0.614222705364 0.867966294289 -0.064758822322
vt 0.014151934534 0.783952832222 -0.064758270979
vt 0.014151934534 0.867966294289 -0.064758285880
vt 0.271365880966 0.485322177410 -0.002821326256
vt 0.291303873062 0.485322177410 -0.002821326256
vt 0.274519681931 0.514496624470 -0.000940442085
vt 0.288150429726 0.514496624470 -0.000940442085
vt 0.271365880966 0.485322177410 -0.005328133702
vt 0.291303873062 0.485322177410 0.006268560886
vt 0.274519681931 0.508645594120 0.005328133702
vt 0.288150429726 0.508645594120 -0.006268560886
vt 0.271365880966 0.485322177410 -0.005328126252
vt 0.291303873062 0.485322177410 0.006268568337
vt 0.274519681931 0.508638322353 0.005328126252
vt 0.288150191307 0.508638322353 -0.006268568337
vt 0.271365880966 0.485322177410 -0.002821341157
vt 0.291303515434 0.485322177410 -0.002821490169
vt 0.274519681931 0.514496624470 -0.000940456986
vt 0.288150191307 0.514496624470 -0.000940456986
vt 0.994001626968 0.206863224506 0.101333722472
vt 0.994001626968 0.214822322130 0.087711438537
vt 0.537279009819 0.214822322130 0.087712511420
vt 0.537279009819 0.206863224506 0.101334735751
vt 0.994001626968 0.297763794661 -0.087712720037
vt 0.994001626968 0.305722862482 -0.101335063577
vt 0.537279009819 0.305722862482 -0.101334080100
vt 0.537279009819 0.297763794661 -0.087711736560
vt 0.994001626968 0.221693336964 0.062326118350
vt 0.537279009819 0.221693336964 0.062327131629
vt 0.537279009819 0.290892094374 -0.062326267362
vt 0.994001626968 0.290893375874 -0.062327250838
vt 0.994001626968 0.286683499813 -0.032736375928
vt 0.527373075485 0.294906973839 0.000000178814
vt 0.994001626968 0.225903451443 0.032735452056
vt 0.537279009819 0.225903034210 0.032736346126
vt 0.527373075485 0.294906973839 0.000000178814
vt 0.300279498100 0.487306058407 0.011596679688
vt 0.293780565262 0.509926736355 -0.011596679688
vt 0.268889427185 0.509926736355 0.011596709490
vt 0.262390375137 0.487306296825 -0.011596709490
vt 0.300279498100 0.487306058407 0.011596679688
vt 0.293780326843 0.509926736355 -0.011596679688
vt 0.268889427185 0.509926736355 0.011596679688
vt 0.262390375137 0.487306296825 -0.011596769094
vt 0.986705958843 0.995591342449 0.017409816384
vt 0.989097058773 0.995591580868 -0.000000439584
vt 0.991487920284 0.995591580868 -0.000000447035
vt 0.986708343029 0.546723008156 0.017411634326
vt 0.989099323750 0.546723008156 0.000000439584
vt 0.991489946842 0.546722948551 0.000000447035
vt 0.993880808353 0.546722948551 -0.017409801483
vt 0.993879020214 0.995591580868 -0.017411619425
vt 0.986705958843 0.995591342449 0.017409816384
vt 0.989097058773 0.995591580868 -0.000000439584
vt 0.991487920284 0.995591580868 -0.000000447035
vt 0.986708343029 0.546723008156 0.017411634326
vt 0.989099323750 0.546723008156 0.000000439584
vt 0.991489946842 0.546722948551 0.000000447035
vt 0.993880808353 0.546722948551 -0.017409801483
vt 0.993879020214 0.995591580868 -0.017411619425
vt 0.614222705364 0.783952832222 -0.064758777618
vt 0.614222705364 0.867966294289 -0.064758822322
vt 0.014151934534 0.783952832222 -0.064758270979
vt 0.014151934534 0.867966294289 -0.064758285880
# 97 texture coords

g lamp_6_a
s 2
f 1/14/1 3/16/2 4/17/3 
f 4/17/4 2/15/5 1/14/6 
f 5/18/7 6/19/8 8/21/9 
f 8/21/10 7/20/11 5/18/12 
s 8
f 21/94/13 22/95/14 24/97/15 
f 24/97/16 23/96/17 21/94/18 
s 4
f 2/53/19 4/54/20 8/55/21 
f 8/55/22 6/56/23 2/53/24 
s 1
f 18/30/25 17/29/26 19/31/27 
f 19/31/28 20/32/29 18/30/30 
s 4
f 3/57/31 1/58/32 5/59/33 
f 5/59/34 7/60/35 3/57/36 
s 2
f 4/17/37 3/16/38 9/22/39 
f 9/22/40 10/23/41 4/17/42 
f 7/20/43 8/21/44 12/25/45 
f 12/25/46 11/24/47 7/20/48 
s 4
f 8/55/49 4/54/50 10/61/51 
f 10/61/52 12/62/53 8/55/54 
f 3/57/55 7/60/56 11/63/57 
f 11/63/58 9/64/59 3/57/60 
s 2
f 10/23/61 9/22/62 13/26/63 
f 13/26/64 14/27/65 10/23/66 
s 4
f 9/64/67 11/63/68 15/1/69 
f 15/1/70 13/65/71 9/64/72 
s 2
f 11/24/73 12/25/74 16/28/75 
f 16/28/76 15/66/77 11/24/78 
s 4
f 12/62/79 10/61/80 14/67/81 
f 14/67/82 16/68/83 12/62/84 
s 2
f 14/27/85 13/26/86 17/6/87 
f 17/6/88 18/7/89 14/27/90 
s 4
f 13/65/91 15/1/92 19/31/93 
f 19/31/94 17/29/95 13/65/96 
s 2
f 15/69/97 16/28/98 20/9/99 
f 20/9/100 19/8/101 15/69/102 
s 4
f 16/68/103 14/67/104 18/30/105 
f 18/30/106 20/32/107 16/68/108 
s off
f 1/4/109 2/2/110 22/34/111 
f 22/34/112 21/33/113 1/4/114 
f 6/3/115 5/5/116 23/35/117 
f 23/35/118 24/36/119 6/3/120 
f 2/2/121 6/3/122 24/36/123 
f 24/36/124 22/34/125 2/2/126 
f 5/5/127 1/4/128 21/33/129 
f 21/33/130 23/35/131 5/5/132 
# 44 faces

#
# object lamp_6_b
#

v  -38.952705383301 -0.060904540122 -1.091579437256
v  -38.952705383301 -0.060904636979 1.096591949463
v  -39.140289306641 2.491963386536 -0.745483398438
v  -39.140289306641 2.491963386536 0.750495910645
v  -39.959274291992 -0.060904540122 -1.091583251953
v  -39.959274291992 -0.060904636979 1.096591949463
v  -39.771690368652 2.491963386536 -0.745483398438
v  -39.771690368652 2.491963386536 0.750492095947
v  38.777378082275 -0.060904540122 -1.091579437256
v  38.777378082275 -0.060904636979 1.096591949463
v  38.964969635010 2.491963386536 -0.745483398438
v  38.964969635010 2.491963386536 0.750495910645
v  39.783950805664 -0.060904540122 -1.091583251953
v  39.783962249756 -0.060904636979 1.096591949463
v  39.596359252930 2.491963386536 -0.745483398438
v  39.596359252930 2.491963386536 0.750492095947
v  39.044303894043 2.431724309921 -0.031745910645
v  39.494293212891 2.431724309921 -0.291553497314
v  39.494293212891 2.431724309921 0.228061676025
v  39.044300079346 99.983322143555 -0.031742095947
v  39.494293212891 99.983322143555 -0.291549682617
v  39.494293212891 99.983322143555 0.228065490723
v  -39.222763061523 2.431724309921 -0.028659820557
v  -39.672744750977 2.431724309921 0.231147766113
v  -39.672744750977 2.431724309921 -0.288467407227
v  -39.222755432129 99.983322143555 -0.028663635254
v  -39.672744750977 99.983322143555 0.231140136719
v  -39.672744750977 99.983322143555 -0.288475036621
# 28 vertices

vn 0.997311234474 0.073282115161 0.000000003203
vn 0.997311234474 0.073282122612 0.000000003203
vn 0.997311234474 0.073282115161 0.000000003203
vn 0.997311234474 0.073282115161 0.000000003203
vn 0.997311234474 0.073282107711 0.000000003203
vn 0.997311234474 0.073282115161 0.000000003203
vn -0.997311234474 0.073282122612 0.000000003203
vn -0.997311234474 0.073282115161 0.000000003203
vn -0.997311234474 0.073282115161 0.000000003203
vn -0.997311234474 0.073282115161 0.000000003203
vn -0.997311234474 0.073282115161 0.000000003203
vn -0.997311234474 0.073282122612 0.000000003203
vn -0.000000939578 0.134343609214 0.990934789181
vn -0.000005986872 0.134342029691 0.990935027599
vn -0.000004600844 0.134342461824 0.990934967995
vn -0.000004600844 0.134342461824 0.990934967995
vn 0.000000000000 0.134343892336 0.990934789181
vn -0.000000939578 0.134343609214 0.990934789181
vn 0.000000000000 1.000000000000 0.000000043711
vn 0.000000000000 1.000000000000 0.000000043711
vn 0.000000000000 1.000000000000 0.000000043711
vn 0.000000000000 1.000000000000 0.000000043711
vn 0.000000000000 1.000000000000 0.000000043711
vn 0.000000000000 1.000000000000 0.000000043711
vn 0.000000869427 0.134343728423 -0.990934789181
vn 0.000003755447 0.134342804551 -0.990934908390
vn 0.000003166067 0.134342998266 -0.990934908390
vn 0.000003166067 0.134342998266 -0.990934908390
vn 0.000000000000 0.134344011545 -0.990934789181
vn 0.000000869427 0.134343728423 -0.990934789181
vn -0.997311055660 0.073285080492 0.000000003203
vn -0.997311055660 0.073285087943 0.000000003203
vn -0.997311055660 0.073285080492 0.000000003203
vn -0.997311055660 0.073285080492 0.000000003203
vn -0.997311055660 0.073285080492 0.000000003203
vn -0.997311055660 0.073285080492 0.000000003203
vn 0.997310936451 0.073286741972 -0.000002315929
vn 0.997310757637 0.073288828135 -0.000005212702
vn 0.997310876846 0.073287554085 -0.000003435629
vn 0.997310876846 0.073287554085 -0.000003435629
vn 0.997311055660 0.073285080492 0.000000003203
vn 0.997310936451 0.073286741972 -0.000002315929
vn 0.000004600914 0.134342461824 0.990934967995
vn 0.000005986980 0.134342029691 0.990935027599
vn 0.000000939579 0.134343609214 0.990934789181
vn 0.000000939579 0.134343609214 0.990934789181
vn 0.000000000000 0.134343907237 0.990934789181
vn 0.000004600914 0.134342461824 0.990934967995
vn 0.000000000000 1.000000000000 0.000000043711
vn 0.000000000000 1.000000000000 0.000000043711
vn 0.000000000000 1.000000000000 0.000000043711
vn 0.000000000000 1.000000000000 0.000000043711
vn 0.000000000000 1.000000000000 0.000000043711
vn 0.000000000000 1.000000000000 0.000000043711
vn -0.000003166067 0.134342998266 -0.990934908390
vn -0.000003755433 0.134342819452 -0.990934908390
vn -0.000000869425 0.134343728423 -0.990934789181
vn -0.000000869425 0.134343728423 -0.990934789181
vn 0.000000000000 0.134344011545 -0.990934789181
vn -0.000003166067 0.134342998266 -0.990934908390
vn -1.000000000000 -0.000000019618 -0.000000000000
vn -1.000000000000 -0.000000019618 0.000000019862
vn 0.499996989965 0.000000018369 -0.866027116776
vn 0.499996989965 0.000000018369 -0.866027116776
vn 0.499995470047 0.000000037855 -0.866028010845
vn -1.000000000000 -0.000000019618 -0.000000000000
vn 0.499995470047 0.000000037855 -0.866028010845
vn 0.499996989965 0.000000018369 -0.866027116776
vn 0.499997019768 -0.000000037855 0.866027116776
vn 0.499997019768 -0.000000037855 0.866027116776
vn 0.499995499849 -0.000000057342 0.866028010845
vn 0.499995470047 0.000000037855 -0.866028010845
vn 0.499995499849 -0.000000057342 0.866028010845
vn 0.499997019768 -0.000000037855 0.866027116776
vn -1.000000000000 -0.000000019618 0.000000019862
vn -1.000000000000 -0.000000019618 0.000000019862
vn -1.000000000000 -0.000000019618 -0.000000000000
vn 0.499995499849 -0.000000057342 0.866028010845
vn 1.000000000000 -0.000000005487 -0.000000000000
vn 1.000000000000 -0.000000072986 0.000006139946
vn -0.499998241663 -0.000000008982 0.866026401520
vn -0.499998241663 -0.000000008982 0.866026401520
vn -0.499992311001 0.000000063741 0.866029858589
vn 1.000000000000 -0.000000005487 -0.000000000000
vn -0.499992311001 0.000000063741 0.866029858589
vn -0.499998241663 -0.000000008982 0.866026401520
vn -0.499992728233 -0.000000063741 -0.866029620171
vn -0.499992728233 -0.000000063741 -0.866029620171
vn -0.499992370605 -0.000000068964 -0.866029798985
vn -0.499992311001 0.000000063741 0.866029858589
vn -0.499992370605 -0.000000068964 -0.866029798985
vn -0.499992728233 -0.000000063741 -0.866029620171
vn 1.000000000000 -0.000000072986 0.000006139946
vn 1.000000000000 -0.000000072986 0.000006139946
vn 1.000000000000 -0.000000005487 -0.000000000000
vn -0.499992370605 -0.000000068964 -0.866029798985
# 96 vertex normals

vt 0.274519681931 0.508645594120 -0.000940442085
vt 0.288150429726 0.508645594120 -0.000940442085
vt 0.274519681931 0.508638322353 -0.000940456986
vt 0.288150191307 0.508638322353 -0.000940456986
vt 0.271365880966 0.485322177410 -0.002821326256
vt 0.291303873062 0.485322177410 -0.002821326256
vt 0.274519681931 0.514496624470 -0.000940442085
vt 0.288150429726 0.514496624470 -0.000940442085
vt 0.271365880966 0.485322177410 -0.005328133702
vt 0.291303873062 0.485322177410 0.006268560886
vt 0.274519681931 0.508645594120 0.005328133702
vt 0.288150429726 0.508645594120 -0.006268560886
vt 0.271365880966 0.485322177410 -0.005328126252
vt 0.291303873062 0.485322177410 0.006268568337
vt 0.274519681931 0.508638322353 0.005328126252
vt 0.288150191307 0.508638322353 -0.006268568337
vt 0.271365880966 0.485322177410 -0.002821341157
vt 0.291303515434 0.485322177410 -0.002821490169
vt 0.274519681931 0.514496624470 -0.000940456986
vt 0.288150191307 0.514496624470 -0.000940456986
vt 0.300279498100 0.487306058407 0.011596679688
vt 0.293780565262 0.509926736355 -0.011596679688
vt 0.268889427185 0.509926736355 0.011596709490
vt 0.262390375137 0.487306296825 -0.011596709490
vt 0.300279498100 0.487306058407 0.011596679688
vt 0.293780326843 0.509926736355 -0.011596679688
vt 0.268889427185 0.509926736355 0.011596679688
vt 0.262390375137 0.487306296825 -0.011596769094
vt 0.986705958843 0.995591342449 0.017409816384
vt 0.989097058773 0.995591580868 -0.000000439584
vt 0.991487920284 0.995591580868 -0.000000447035
vt 0.986708343029 0.546723008156 0.017411634326
vt 0.989099323750 0.546723008156 0.000000439584
vt 0.991489946842 0.546722948551 0.000000447035
vt 0.993880808353 0.546722948551 -0.017409801483
vt 0.993879020214 0.995591580868 -0.017411619425
vt 0.986705958843 0.995591342449 0.017409816384
vt 0.989097058773 0.995591580868 -0.000000439584
vt 0.991487920284 0.995591580868 -0.000000447035
vt 0.986708343029 0.546723008156 0.017411634326
vt 0.989099323750 0.546723008156 0.000000439584
vt 0.991489946842 0.546722948551 0.000000447035
vt 0.993880808353 0.546722948551 -0.017409801483
vt 0.993879020214 0.995591580868 -0.017411619425
# 44 texture coords

g lamp_6_b
s 2
f 25/102/133 27/98/134 28/99/135 
f 28/99/136 26/103/137 25/102/138 
s 4
f 29/106/139 30/107/140 32/109/141 
f 32/109/142 31/108/143 29/106/144 
s 16
f 26/118/145 28/119/146 32/109/147 
f 32/109/148 30/107/149 26/118/150 
s 32
f 28/105/151 27/104/152 31/108/153 
f 31/108/154 32/109/155 28/105/156 
s 64
f 27/120/157 25/121/158 29/106/159 
f 29/106/160 31/108/161 27/120/162 
s 2
f 36/113/163 35/112/164 33/110/165 
f 33/110/166 34/111/167 36/113/168 
s 4
f 40/101/169 38/115/170 37/114/171 
f 37/114/172 39/100/173 40/101/174 
s 16
f 40/123/175 36/113/176 34/111/177 
f 34/111/178 38/122/179 40/123/180 
s 32
f 39/116/181 35/112/182 36/113/183 
f 36/113/184 40/117/185 39/116/186 
s 64
f 37/125/187 33/110/188 35/112/189 
f 35/112/190 39/124/191 37/125/192 
s 8
f 41/126/193 44/129/194 45/130/195 
f 45/130/196 42/127/197 41/126/198 
f 42/127/199 45/130/200 46/131/201 
f 46/131/202 43/128/203 42/127/204 
f 43/128/205 46/131/206 44/132/207 
f 44/132/208 41/133/209 43/128/210 
f 47/134/211 50/137/212 51/138/213 
f 51/138/214 48/135/215 47/134/216 
f 48/135/217 51/138/218 52/139/219 
f 52/139/220 49/136/221 48/135/222 
f 49/136/223 52/139/224 50/140/225 
f 50/140/226 47/141/227 49/136/228 
# 32 faces

